<?xml version="1.0" encoding="UTF-8"?>
<!DOCTYPE svg PUBLIC "-//W3C//DTD SVG 1.1//EN" "http://www.w3.org/Graphics/SVG/1.1/DTD/svg11.dtd">
<!-- Creator: CorelDRAW 2017 -->
<svg xmlns="http://www.w3.org/2000/svg" xml:space="preserve" width="2604px" height="564px" version="1.1" style="shape-rendering:geometricPrecision; text-rendering:geometricPrecision; image-rendering:optimizeQuality; fill-rule:evenodd; clip-rule:evenodd"
viewBox="0 0 660.97 143.09"
 xmlns:xlink="http://www.w3.org/1999/xlink">
  <defs>
  <style type="text/css">
    <![CDATA[
    .str0 {stroke:white;stroke-width:20.3;stroke-linejoin:round;stroke-miterlimit:22.9256}
    .str1 {stroke:white;stroke-width:20.3;stroke-linecap:round;stroke-linejoin:round;stroke-miterlimit:22.9256}
    .str2 {stroke:white;stroke-width:25.38;stroke-linecap:round;stroke-linejoin:round;stroke-miterlimit:22.9256}
    .fil0 {fill:none}
    ]]>
  </style>
  </defs>
  <path id="_7" class="fil0 str0" d="M649.9 103.65c-4.13,13.96 -19.78,28.06 -34.27,26.65 -11.49,-1.12 -20.97,-10.04 -21.57,-21.57 -1.27,-24.12 27.09,-42.94 41.88,-36.81 11.05,4.59 17.35,20.25 13.96,31.73z"/>
  <path id="_6" class="fil0 str1" d="M515.38 130.4l12.85 -69.8 -3.94 21.36c22.87,-16.14 41.57,-20.35 50.34,-14.27"/>
  <path id="_5" class="fil0 str1" d="M421.06 130.4l12.85 -69.8 -3.93 21.36c35.66,-25.17 61.2,-21.32 54.69,5.29l-10.55 43.15"/>
  <path id="_4" class="fil0 str0" d="M395.83 103.65c-4.12,13.96 -19.78,28.06 -34.27,26.65 -11.49,-1.12 -20.96,-10.04 -21.57,-21.57 -1.27,-24.12 27.1,-42.94 41.88,-36.81 11.06,4.59 17.35,20.25 13.96,31.73z"/>
  <path id="_3" class="fil0 str1" d="M243.39 130.4l12.85 -69.8 -3.93 21.36c35.66,-25.17 61.2,-21.32 54.69,5.29l-10.55 43.15"/>
  <path id="_2" class="fil0 str1" d="M205.03 124.6c-27.92,13.96 -48.22,1.27 -44.41,-22.84 2.01,-12.75 10.51,-31.72 34.26,-31.73 15.44,0 25.79,14.68 24.11,27.92l-58.37 3.81"/>
  <path id="_1" class="fil0 str2" d="M12.69 130.4c13.09,-39.24 26.18,-78.47 39.26,-117.71 4.74,39.24 9.47,78.47 14.2,117.71 21.39,-39.24 42.78,-78.47 64.17,-117.71 -3.62,39.24 -7.25,78.47 -10.87,117.71"/>
</svg>
