<svg id="bold" enable-background="new 0 0 24 24" height="512" viewBox="0 0 24 24" width="512" xmlns="http://www.w3.org/2000/svg"><path d="m8.84 15h-4.09c-.414 0-.75-.336-.75-.75s.336-.75.75-.75h4.09c.414 0 .75.336.75.75s-.336.75-.75.75z"/><path d="m8.25 18h-3.5c-.414 0-.75-.336-.75-.75s.336-.75.75-.75h3.5c.414 0 .75.336.75.75s-.336.75-.75.75z"/><path d="m8.25 21h-5.5c-1.517 0-2.75-1.233-2.75-2.75v-15.5c0-1.517 1.233-2.75 2.75-2.75h11.5c1.517 0 2.75 1.233 2.75 2.75v5.56c0 .414-.336.75-.75.75s-.75-.336-.75-.75v-5.56c0-.689-.561-1.25-1.25-1.25h-11.5c-.689 0-1.25.561-1.25 1.25v15.5c0 .689.561 1.25 1.25 1.25h5.5c.414 0 .75.336.75.75s-.336.75-.75.75z"/><circle cx="8.5" cy="5" r="2"/><path d="m11.75 12h-6.5c-.414 0-.75-.336-.75-.75v-.5c0-1.517 1.233-2.75 2.75-2.75h2.5c1.517 0 2.75 1.233 2.75 2.75v.5c0 .414-.336.75-.75.75z"/><path d="m17.5 11c-3.584 0-6.5 2.916-6.5 6.5s2.916 6.5 6.5 6.5 6.5-2.916 6.5-6.5-2.916-6.5-6.5-6.5zm0 11c-.414 0-.75-.336-.75-.75s.336-.75.75-.75.75.336.75.75-.336.75-.75.75zm1.491-4.342c-.654.502-.741.965-.741 1.592 0 .414-.336.75-.75.75-1.205 0-.958-2.353.577-3.532.265-.203.423-.534.423-.884 0-.598-.449-1.083-1-1.083s-1 .486-1 1.083c0 .414-.336.75-.75.75s-.75-.336-.75-.751c0-1.424 1.122-2.583 2.5-2.583s2.5 1.159 2.5 2.583c0 .814-.377 1.589-1.009 2.075z"/></svg>