<svg width="52" height="50" fill="none" xmlns="http://www.w3.org/2000/svg"><path fill-rule="evenodd" clip-rule="evenodd" d="M24.814 0h1.457c13.648 0 24.816 11.164 24.816 24.81v.014c0 13.645-11.168 24.809-24.816 24.809h-1.457C11.166 49.633 0 38.469 0 24.823v-.014C0 11.164 11.166 0 24.814 0zm-3.607 16.395 7.635 16.89h-3.19l-1.304-2.895-1.306-2.896-3.43-7.575-3.43 7.575h4.397l1.305 2.896h-7.007l-1.304 2.895h-3.189l7.635-16.89h3.188zm19.494 12.064a5.64 5.64 0 0 1-.387 2.136 4.476 4.476 0 0 1-1.099 1.617c-.499.456-1.087.805-1.727 1.025-.73.25-1.499.373-2.271.363a9.417 9.417 0 0 1-3.575-.64 10.201 10.201 0 0 1-2.584-1.46l2.005-2.002a5.748 5.748 0 0 0 1.788 1.11c.364.15.746.255 1.136.313.288.043.578.067.87.073.387.004.774-.049 1.147-.157.322-.093.627-.236.906-.423a1.886 1.886 0 0 0 .821-1.593c0-.404-.156-.792-.435-1.084a2.54 2.54 0 0 0-.869-.628c-.291-.161-.6-.29-.919-.385-.932-.282-1.963-.6-2.863-.943a9.524 9.524 0 0 1-1.896-.988c-1.464-.98-2.197-2.187-2.198-3.62a5.267 5.267 0 0 1 .496-2.4 4.601 4.601 0 0 1 1.292-1.593 5.04 5.04 0 0 1 1.775-.88 7.296 7.296 0 0 1 1.92-.266 9.01 9.01 0 0 1 2.924.41 10.95 10.95 0 0 1 1.884.82c.214.128.42.27.616.424.168.136.318.261.447.373l-2.054 2.075a5.224 5.224 0 0 0-1.329-.99 4.905 4.905 0 0 0-2.126-.482c-.325 0-.65.041-.966.121-.294.07-.577.175-.845.314-.709.434-1.063 1.005-1.064 1.713a1.555 1.555 0 0 0 .435 1.11c.247.27.542.49.87.651.308.162.632.291.966.387l.942.265.29.073c.08.031.233.08.46.144.27.08.536.177.796.29.306.128.64.281 1.003.458.373.183.731.393 1.074.628 1.563 1.03 2.344 2.243 2.344 3.642z" fill="#fff"/></svg>