<svg width="806" height="188" fill="none" xmlns="http://www.w3.org/2000/svg"><g clip-path="url(#a)"><path fill-rule="evenodd" clip-rule="evenodd" d="M63.008 29.528 62.2 0l54.493 36.528C142.528 49.82 160.2 76.746 160.2 107.8c0 44.238-35.862 80.1-80.1 80.1-44.238 0-80.1-35.862-80.1-80.1 0-38.372 26.982-70.442 63.008-78.272z" fill="#86B739"/><path fill-rule="evenodd" clip-rule="evenodd" d="M63.008 29.528 62.2 0l54.493 36.528C142.528 49.82 160.2 76.746 160.2 107.8c0 44.238-35.862 80.1-80.1 80.1-44.238 0-80.1-35.862-80.1-80.1 0-38.372 26.982-70.442 63.008-78.272z" fill="url(#b)" fill-opacity=".2"/><path d="M46.8 125.1c-5.6 0-9.9 4.4-9.9 9.9 0 5.7 4.3 9.9 9.9 9.9 5.6 0 9.9-4.4 9.9-9.9 0-5.4-4.4-9.9-9.9-9.9zM46.8 85.9c-5.6 0-9.9 4.4-9.9 9.9 0 5.7 4.3 9.9 9.9 9.9 5.6 0 9.9-4.4 9.9-9.9 0-5.4-4.4-9.9-9.9-9.9zM92.7 84.1h-9.4V70.3H69.2v75h23.6c16.9 0 30.7-13.7 30.7-30.7s-13.9-30.5-30.8-30.5zm0 47.3h-9.4V98.1h9.4c9.2 0 16.6 7.5 16.6 16.6.1 9.2-7.4 16.7-16.6 16.7z" fill="#fff"/><path d="M244.9 84.2c-4 0-7.8.8-11.3 2.5-2.7 1.3-5.1 3-7.2 5.2V52.2h-13.8v93.7h11.9l.1-.8 1.1-6.3c2.2 2.4 4.8 4.4 7.6 5.8 3.5 1.8 7.4 2.6 11.5 2.6 8.4 0 15.5-3 21.1-9 5.6-6 8.4-13.5 8.4-22.4 0-9-2.8-16.5-8.4-22.5-5.5-6.1-12.6-9.1-21-9.1zm15.6 31.5c0 5.3-1.7 9.9-5 13.5-3.3 3.6-7.4 5.4-12.5 5.4-5 0-9.1-1.8-12.5-5.4-3.4-3.6-5.1-8.1-5.1-13.5s1.7-10 5.1-13.6c3.4-3.6 7.5-5.4 12.5-5.4s9.1 1.8 12.5 5.4c3.3 3.6 5 8.2 5 13.6zM322.5 84.3c-.8-.1-1.7-.1-2.7-.1-3.6 0-7.2.9-10.5 2.8-2.7 1.5-5.2 3.5-7.4 6.1l-1.3-6.7-.2-.8h-11.9V146h13.8v-38.9c1.9-2.7 4.1-4.7 6.6-6.1 2.6-1.4 5.5-2.1 8.7-2.1.6 0 1.3 0 2 .1s1.3.2 1.9.4l1 .3.2-1 2.7-12.5.2-.9-.9-.3c-.7-.5-1.4-.6-2.2-.7zM380.9 85.5h-.9l-.1.8-1.1 6.3c-2.2-2.4-4.8-4.4-7.6-5.8-3.5-1.8-7.4-2.6-11.5-2.6-8.4 0-15.5 3-21.1 9-5.6 6-8.4 13.5-8.4 22.5 0 8.9 2.8 16.4 8.4 22.4 5.6 6 12.7 9 21.1 9 4.1 0 8-.9 11.5-2.6 2.9-1.4 5.4-3.4 7.6-5.8l1.1 6.3.1.8h12V85.5h-11.1zm-1.8 30.2c0 5.3-1.7 9.9-5.1 13.5-3.4 3.6-7.5 5.4-12.5 5.4s-9.1-1.8-12.5-5.4c-3.3-3.6-5-8.1-5-13.5s1.7-10 5-13.6c3.3-3.6 7.4-5.4 12.5-5.4 5 0 9.1 1.8 12.5 5.4 3.4 3.6 5.1 8.2 5.1 13.6zM417.1 60.8c-2.3 0-4.4.9-6.1 2.6-1.7 1.7-2.6 3.8-2.6 6.2 0 2.4.9 4.5 2.6 6.2 1.7 1.7 3.8 2.6 6.1 2.6 2.4 0 4.5-.9 6.2-2.6 1.7-1.7 2.6-3.8 2.6-6.2 0-2.4-.9-4.5-2.6-6.2-1.6-1.7-3.7-2.6-6.2-2.6zM411.3 85.5h-1v60.3h13.8V85.5h-12.8zM474.5 84.2c-3.8 0-7.5 1-11 2.8-2.9 1.5-5.4 3.6-7.7 6.1l-1.3-6.9-.2-.8h-11.9v60.4h13.8V107c2-3.2 4.4-5.7 7-7.5 2.6-1.7 5.4-2.6 8.2-2.6 4 0 7 1.3 9.2 3.9 2.2 2.7 3.3 6.4 3.3 11.2v33.8h13.8v-35.2c0-8.2-2.1-14.7-6.2-19.4-4-4.6-9.8-7-17-7zM547.4 84.2c-4 0-7.8.8-11.3 2.5-2.7 1.3-5.1 3-7.2 5.2V52.2h-13.8v93.7H527l.1-.8 1.1-6.3c2.2 2.4 4.8 4.4 7.6 5.8 3.5 1.8 7.4 2.6 11.5 2.6 8.4 0 15.5-3 21.1-9 5.6-6 8.4-13.5 8.4-22.4 0-9-2.8-16.5-8.4-22.5-5.5-6.1-12.6-9.1-21-9.1zm15.6 31.5c0 5.3-1.7 9.9-5 13.5-3.3 3.6-7.4 5.4-12.5 5.4-5 0-9.1-1.8-12.5-5.4-3.4-3.6-5.1-8.1-5.1-13.5s1.7-10 5.1-13.6c3.4-3.6 7.5-5.4 12.5-5.4s9.1 1.8 12.5 5.4c3.3 3.6 5 8.2 5 13.6zM616.8 84.2c-8.4 0-15.6 3.1-21.4 9.1-5.8 6.1-8.7 13.6-8.7 22.4 0 8.7 3.1 16.2 9.1 22.3 6.1 6.1 13.6 9.1 22.3 9.1 4.7 0 9.1-.8 13.1-2.3 4-1.6 7.7-3.9 11.1-7l.7-.7-.7-.7-7-7.8-.7-.8-.7.7c-2.3 2.2-4.8 3.8-7.4 4.8-2.6 1-5.5 1.6-8.5 1.6-4.1 0-7.8-1.4-11-4.1-2.9-2.4-4.9-5.6-5.9-9.3h45.4l.1-.9v-.4c.1-.7.1-1.3.2-2 .1-.9.1-1.7.1-2.5 0-8.8-2.9-16.3-8.7-22.4-5.8-6-13-9.1-21.4-9.1zm15.9 25.2h-31.5c1-3.6 2.8-6.7 5.5-9 2.9-2.6 6.3-3.9 10.1-3.9s7.3 1.3 10.3 3.9c2.7 2.3 4.6 5.4 5.6 9zM693.9 84.3c-.8-.1-1.7-.1-2.7-.1-3.6 0-7.2.9-10.5 2.8-2.7 1.5-5.2 3.5-7.4 6l-1.3-6.7-.2-.8h-11.9v60.4h13.8V107c1.9-2.7 4.1-4.7 6.6-6.1 2.6-1.4 5.5-2.1 8.7-2.1.6 0 1.3 0 2 .1s1.3.2 1.9.4l1 .3.2-1 2.7-12.5.2-1.1-.9-.3c-.6-.2-1.4-.3-2.2-.4zM740.4 84.3c-.8-.1-1.7-.1-2.7-.1-3.6 0-7.2.9-10.5 2.8-2.7 1.5-5.2 3.5-7.4 6l-1.3-6.7-.2-.8h-11.9v60.4h13.8V107c1.9-2.7 4.1-4.7 6.6-6.1 2.6-1.4 5.5-2.1 8.7-2.1.6 0 1.3 0 2 .1s1.3.2 1.9.4l1 .3.2-1 2.7-12.5.2-.9-.9-.3c-.6-.4-1.4-.5-2.2-.6zM805.8 126.1V85.5h-14V125c-2 3-4.2 5.4-6.8 7-2.6 1.6-5.2 2.4-8 2.4-3.8 0-6.7-1.2-8.7-3.6-2-2.3-3-5.6-3.1-9.7V85.5h-13.8v36.2c0 7.9 2 14.2 6 18.7 2.2 2.5 4.9 4.3 8.2 5.4 2.6.9 5.5 1.4 8.6 1.4 2.7 0 5.3-.5 7.8-1.4 1.6-.6 3.2-1.4 4.7-2.3 1.9-1.2 3.6-2.6 5.2-4.2v6.2c-.3 4.4-1.8 7.4-5.1 10.4-3.6 3.2-8.3 4.9-14 4.9-3.8 0-7.4-.6-10.9-1.9-2.6-.9-5.2-2.3-7.7-3.9l-.8-.6-.6.8-5.9 8.7-.6.8.8.6c3.4 2.3 7.1 4.1 11 5.4 4.9 1.6 10.2 2.5 15.5 2.5 9.1 0 16.9-2.8 23-8.2 6.1-5.4 9-11.6 9.2-19.4v-18.9l.1-.2-.1-.4z" fill="#201600"/></g><defs><linearGradient id="b" x1="80.1" y1="0" x2="80.1" y2="187.9" gradientUnits="userSpaceOnUse"><stop offset=".249" stop-color="#fff" stop-opacity="0"/><stop offset="1" stop-color="#fff"/></linearGradient><clipPath id="a"><path fill="#fff" d="M0 0h805.9v187.9H0z"/></clipPath></defs></svg>