<svg xmlns="http://www.w3.org/2000/svg" width="34.1" height="22.5" xml:space="preserve"><g fill="#DA1F30"><path d="M8.8 11.2H10c.6 0 1.1-.3 1.1-.9 0-.5-.5-.799-1.1-.799H8.8V11.2zm2.4 3.2L10 12.6H8.8v1.8H7.2V8.1H10c1.6 0 2.6.901 2.6 2.2 0 .8-.4 1.5-1.1 1.9l1.5 2.2h-1.8zM15.4 9.5v1.1h2.8V12h-2.8v1.1h3.2v1.299h-4.8V8.1h4.8v1.4zM24 11.3c0-1-.799-1.7-1.799-1.7h-1v3.5h1C23.3 13 24 12.3 24 11.3m1.6 0c0 1.9-1.399 3.2-3.399 3.2h-2.5V8.2h2.5c2-.1 3.399 1.2 3.399 3.1M26.5 8.1h1.6v6.3h-1.6zM34.1 9.5h-1.8v4.899h-1.599V9.5h-1.8V8.1H34.1zM4.7 12.2c-.2.6-.7.9-1.5.9-1 0-1.7-.8-1.7-1.8 0-1.1.7-1.8 1.7-1.8.7 0 1.2.3 1.5.9h1.7C6.1 9 4.9 8 3.3 8 1.4 8 0 9.4 0 11.3s1.4 3.3 3.3 3.3c1.6 0 2.8-1 3.1-2.4H4.7zM6 .3v6.3H4.4V4.3H1.9v2.3H.3V.3h1.6v2.5h2.5V.3zM24.1 6.6h-1.6V3.5l-1.4 2.1h-.899L18.8 3.4v3.2h-1.599V.3h1.2l2.3 3.4 2.2-3.4H24.1zM26.9 1.7v1.1h2.899v1.4H26.9v1.1h3.3v1.3h-4.8V.3h4.8v1.4zM11.6 0C9.1 0 7.1 1.9 7.1 4.3c0 .8.3 1.6.7 2.3H10c-.7-.5-1.1-1.3-1.1-2.2 0-1.5 1.2-2.8 2.7-2.8s2.8 1.2 2.8 2.8c0 .9-.4 1.7-1.1 2.2h2.2c.4-.7.7-1.4.7-2.3C16.1 2 14.1 0 11.6 0"/><path d="M10.1 5.1c.2.6.8 1.1 1.5 1.1s1.3-.5 1.5-1.1h-3zM3.4 21.2c.6 0 .9-.301.9-.7 0-.401-.3-.601-.9-.601H1.9v1.2l1.5.101zm-1.5-2.5h1.3c.6 0 .9-.301.9-.7 0-.401-.3-.601-.9-.601H1.9V18.7zm4 2c0 1.1-.8 1.8-2.3 1.8H.3v-6.3h3.1c1.4 0 2.2.699 2.2 1.699 0 .601-.3 1.2-.9 1.401.8.099 1.2.7 1.2 1.4M9.5 17.9l-.8 2.101h1.6L9.5 17.9zm-1.4 3.5-.4 1.101H6L8.7 16.1h1.5l2.7 6.401h-1.7l-.4-1.101H8.1zM19.4 22.5h-1.2l-3-3.5v3.5h-1.6v-6.3h1.199l3 3.5v-3.5H19.4zM22.1 21.2v1.3h-1.6v-6.3h1.6V19l2.5-2.8h1.9l-2.4 2.699 2.601 3.601H24.8L23 20.2z"/></g></svg>