<svg width="186" height="120" fill="none" xmlns="http://www.w3.org/2000/svg"><g clip-path="url(#a)"><path d="M184.667 10.734 2.581 50.663 40.574 83.19l-.917 10.239-.02.308c-.046.837-.057 1.803.124 2.75.348 1.917 1.282 3.498 2.721 4.604 1.33 1.005 2.99 1.513 4.959 1.52.28 0 .574-.015.868-.037v.035l.28-.063c.58-.057 1.158-.148 1.728-.273l4.465-.994c.346-.08.686-.181 1.018-.304l6.138-1.343 24.201 19.029 30.899-31.106 19.354-4.244.619-5.17.641-11.37 47.015-56.038z" fill="#000"/><path d="M36.666 29.424c-.074.014-.121.027-.121.027l.121-.027zm6.424 1.617 2.338 2.668 5.245-7.428-14.004 3.143c.682-.146 4.308-.788 6.421 1.619v-.002z" fill="#E51708"/><path d="m163.993.832-9.385 16.38 30.06-6.478L161.588 12 163.993.83v.002z" fill="#000"/><path d="M31.553 43.672 22.67 32.567l2.781 8.8-23.964 8.885 30.067-6.579-.001-.001z" fill="#E51708"/><path d="m138.791 59.603 45.876-48.87-30.059 6.47L163.993.833 22.669 32.566l8.946 11.188-30.128 6.498 39.527 27.724-.878 9.944-.02.28c-.053.884.003 1.77.166 2.64.369 2.029 1.365 3.712 2.906 4.9 1.39 1.052 3.094 1.582 5.103 1.589.952-.01 1.9-.124 2.828-.338l12.947-2.846 22.799 15.991 27.905-27.121 22.241-4.883 1.773-18.537.007.007z" fill="#fff"/><path d="m112.786 43.162.442-5.227-11.335 2.333c-3.839.787-7.134-2.055-6.804-5.874l1.254-14.326 8.72-1.872-1.328 14.902 10.086-2.252 1.429-14.821 8.606-1.885-2.426 28.493c-.27 3.155-2.695 5.906-5.857 6.635l-24.371 5.226 3.547-6.395a3.646 3.646 0 0 1 2.448-1.797l15.59-3.133-.001-.007zm-63.127 16.52c1.66 2.1 4.43 3.03 7.23 2.432l4.378-.947-10.498-13.63 12.62-20.284-10.238 2.136L45.733 41l-4.624-6.005c-1.235-1.6-3.335-2.307-5.446-1.833l-5.899 1.32 11.128 14.096-12.56 19.662 11.136-2.532 6.59-10.592 3.601 4.568zM136 18.399l11.82-2.511a4.632 4.632 0 0 0 3.041-2.252l3.438-6.14-19.202 4.23c-4.268.98-7.536 4.685-7.899 8.952l-1.589 18.672c-.349 4.121 3.255 7.153 7.38 6.216l12.503-2.714a4.744 4.744 0 0 0 3.095-2.285l3.398-5.99-17.728 3.696L136 18.398zm-78.273 53.82.436-5.144L52.31 68.3l.382-4.354-6.33 1.363L44.396 88c-.27 3.136 2.456 5.458 5.598 4.77l3.312-.744a3.745 3.745 0 0 0 2.426-1.819l2.399-4.272-7.49 1.623 1.226-14.019 5.873-1.328-.014.008zm22.711-5.063c.16.575.224 1.198.171 1.857l-.686 7.962-13.575 3.121-.362 4.17L79.52 81.33l-2.345 4.237c-.516.933-1.586 1.704-2.61 1.927l-9.35 2.06c-1.897.417-3.634-.319-4.595-1.666a4.298 4.298 0 0 1-.822-2.973l1.13-11.968c.33-3.847 3.292-7.187 7.15-8.05l6.268-1.28c2.882-.648 5.45.99 6.1 3.538h-.008zm-13.22 2.975c-.032.413-.387 4.472-.453 5.185l7.716-1.69.434-5.102-7.696 1.607zm35.148-7.657-1.627 19.111-13.364 2.914c-2.978.69-5.588-1.497-5.344-4.466l.177-2.202c.296-3.647 3.046-6.844 6.686-7.767l6.924-1.764.328-4.628L84.7 66.093l2.386-4.293a3.29 3.29 0 0 1 2.194-1.618l8.352-1.706c2.65-.592 4.959 1.362 4.734 4.003v-.007zm-6.335 10.804-5.4 1.16c-1.196.257-2.122 1.29-2.22 2.483l-.132 1.515c-.046.549.434.952.986.827l6.33-1.282.436-4.703zm33.279-21.66-23.182 5.008-2.062 22.68c-.08.85.674 1.479 1.521 1.27l4.684-1.07 1.833-19.216 4.979-1.1-1.766 19.182 5.955-1.247 1.847-19.25 4.712-1.015-1.811 17.412c-.087.824.607 1.72 1.433 1.525l4.828-1.05 1.798-19.066c.252-2.681-2.085-4.683-4.775-4.077l.006.013zM61.885 58.52l2.751-31.593 21.347-4.655c3.564-.806 6.675 1.816 6.378 5.375L91.024 43.4c-.218 2.579-2.206 4.82-4.794 5.41l-15.317 3.346-.613 7.002-6.07 1.323c-1.305.312-2.456-.65-2.345-1.954v-.007zm9.65-13.166 9.73-2.197a1.64 1.64 0 0 0 1.268-1.431l.856-10.066c.078-.94-.738-1.63-1.68-1.42l-9 1.898-1.168 13.216h-.007zm65.575 5.513c.052-3.318 5.033-3.333 4.982-.015-.051 3.326-5.033 3.34-4.982.015zm4.394-.013c.039-2.647-3.767-2.635-3.806.012-.039 2.646 3.767 2.62 3.806-.012zm-.81 1.1v.082l-.505.001-.529-.794-.416.002-.011.795-.485.002.04-2.366 1.018-.003c.499-.001.854.279.85.8a.69.69 0 0 1-.517.701l.555.78zm-1.445-1.114.492-.001c.239 0 .423-.146.43-.372-.001-.212-.166-.37-.419-.37l-.492.004-.011.74z" fill="#000"/></g><defs><clipPath id="a"><path fill="#fff" transform="translate(0 .764)" d="M0 0h186v119H0z"/></clipPath></defs></svg>