<svg xmlns="http://www.w3.org/2000/svg" width="256" height="122.9"><path d="M186.5 10.4c3.4 9.1 6.7 18 10 27h8.6C203.7 33.7 191.8 2.1 191 0h-8.9c-3.2 8.4-12.5 33.3-14.1 37.4h8.5c3.3-9 6.6-17.9 10-27z" fill="#fff" style="stroke-dashoffset:0"/><path d="M238.5 14.3c-.7.1-1.4.1-2.1.2-3.2.3-6.3 1.1-9.1 2.9-3.1 2-5.2 4.8-6.3 8.3-.4 1.1-.5 2.3-.7 3.4 0 .1-.1.3-.1.4V32c.1.6.2 1.1.3 1.7.5 3.2 2 5.9 4.2 8.2 1.9 2 4.3 3.5 6.7 5 3.5 2.3 7.1 4.5 10.6 6.8 1.8 1.2 3.3 2.6 4.4 4.4 1.9 3.3 1.1 7.3-1.4 9.8-1.7 1.7-3.7 2.6-6 3-3 .6-6 .3-9-.5-3.4-.9-6.4-2.6-9.2-4.8v8.9c0 .3.1.5.4.6 2.7 1.3 5.6 2.3 8.5 2.9 1.6.3 3.3.4 4.9.6.1 0 .3.1.4.1h2.4c.6-.1 1.3-.1 1.9-.2 3.8-.4 7.3-1.5 10.4-3.8 3-2.4 5-5.4 5.8-9.1.2-.9.3-1.9.5-2.9v-2.3c-.1-.8-.2-1.6-.6-2.4-.6-2.7-1.9-5.1-3.7-7.1-2.3-2.6-5.3-4.5-8.2-6.3-3.5-2.2-6.9-4.3-10.3-6.5-1.4-1-2.7-2.1-3.6-3.7-1.4-2.5-1.4-5.1-.2-7.6 1.3-2.5 3.5-3.8 6.1-4.5 2.5-.7 4.9-.6 7.4-.2 3.6.6 6.9 2 9.8 4.2.1.1.2.2.4.3v-8.5c0-.3-.1-.5-.4-.6-2.6-1.4-5.5-2.4-8.5-2.8-1-.2-2.1-.3-3.1-.4h-2.6zM77 14.4c-.5.1-1.1.1-1.6.2-6.2.6-11.9 2.7-16.8 6.6-5.4 4.2-8.9 9.7-10.8 16.2-.7 2.3-1.1 4.6-1.2 7 0 .1-.1.3-.1.4v3.5c.1.4.2.9.2 1.4.5 5.3 2.1 10.2 5 14.7 3.7 5.7 8.7 9.7 15 12.1 3.2 1.2 6.5 1.9 9.9 2.1.1 0 .2.1.3.1h3.5c.5 0 1-.1 1.5-.1 5.8-.5 11.1-2.3 15.8-5.7 5.6-4 9.5-9.4 11.6-16 .9-2.6 1.3-5.3 1.5-8.1 0-.1.1-.3.1-.4v-3.5c-.1-.9-.2-1.7-.3-2.5-.3-3.2-1.1-6.2-2.4-9.1-1.8-4.2-4.3-7.8-7.7-10.8-3.4-3-7.2-5.1-11.5-6.5-2.7-.9-5.3-1.3-8.1-1.5-.1 0-.3-.1-.4-.1H77zm44.7.8v62.5h7.9V52.5h23.9V45h-23.8V22.8h25.7c0-2.5 0-5-.1-7.6h-33.6zM0 15.3v62.5h7.9V51.7h.5c1.8 0 3.5.1 5.3 0 3.1-.1 5.7 1 8 2.8 2.7 2.1 4.6 4.7 6.2 7.6 2.1 3.7 3.6 7.7 4.6 11.9.3 1.3.5 2.5.8 3.8h8.2c-.8-5.1-2-10-4.2-14.7-1.4-3.3-3.1-6.3-5.4-9-1.7-2-3.6-3.8-6-5-.2-.1-.3-.2-.5-.3.3-.1.5-.2.8-.3 3.1-.8 5.9-2.4 8.1-4.8 1.8-2 3-4.4 3.5-7.1.6-3.1.5-6.2-.4-9.3-.9-3.3-2.8-5.9-5.5-8-2.5-1.9-5.3-3-8.3-3.5-1.2-.2-2.3-.3-3.5-.4-.1 0-.2-.1-.3-.1H0zm78.9 6.9c5.1 0 10 1.5 14.3 4.9 3.9 3 6.7 6.9 8.2 11.7 1 2.9 1.4 5.9 1.2 8.9-.4 6.7-2.8 12.4-7.7 17-3.1 3-6.8 4.8-11 5.7-3.2.7-6.5.7-9.8.1-5.2-.9-9.6-3.4-13.1-7.3-2.9-3.3-4.8-7-5.6-11.3-1.3-6.2-.5-12.2 2.7-17.8 2.7-4.8 6.6-8.2 11.7-10.2 2.8-1.2 5.8-1.7 9.1-1.7zm-71 .6h10.6c2.7 0 5.2.6 7.4 2.2 2.9 2.2 4.1 5.2 4.1 8.7-.1 2.1-.5 4-1.6 5.7-1.3 2.2-3.4 3.5-5.8 4.2-1.4.5-2.8.6-4.3.6H8C8 37 8 30 7.9 22.8zM168 52.7c-1.5 3.9-2.9 7.8-4.4 11.7-1.6 4.3-3.3 8.7-4.9 13 0 .1-.1.2-.1.2.1 0 .2.1.4.1h8.5c2.1-5.7 4.1-11.3 6.2-17 .1-.3.3-.5.7-.5h24.3c.3 0 .5.1.6.4 2.1 5.7 4.2 11.4 6.4 17h8.9c-2.6-6.6-5.2-13.4-7.7-20.1l-1.8-4.8H168z" fill="#fff" style="stroke-dashoffset:150.997px"/><path d="M91.4 106.6c-.6 0-1.1.1-1.5.2-.4.2-.7.4-1 .6-.2.3-.4.6-.5.9-.1.3-.2.7-.2 1.1v.9l-1.3.2c-.1 0-.2.1-.2.1-.1 0-.1.1-.1.2v.6c0 .1.1.1.2.1h1.3v7.5c0 .1.1.2.1.2h1.3c.1 0 .1-.1.1-.2v-7.5h3.7v7.5c0 .1.1.2.1.2.1 0 .1 0 .1.2h1.2c.1 0 .1-.1.1-.2v-8.7c0-.1-.1-.1-.2-.1h-4.9v-.9c0-.2.1-.3.1-.5.1-.2.2-.4.3-.5l.6-.3c.2-.1.5-.1.9-.1h.9c.2 0 .4.1.6.1s.4.1.6.1.3-.1.3-.2l.2-.8v-.2c-.1 0-.1-.1-.2-.1-.3-.1-.5-.2-.8-.2-.3 0-.6-.1-.8-.1-.2-.1-.4-.1-.6-.1h-.4zm88.3.2c-.1 0-.1.1-.1.2v3.3c-.4-.1-.8-.2-1.1-.2h-.9c-.8 0-1.4.1-1.9.4s-1 .7-1.3 1.1c-.4.4-.6.9-.8 1.5-.1.6-.2 1.2-.2 1.8 0 .7.1 1.3.3 1.9.2.5.4 1 .7 1.4.3.4.7.7 1.2.9.5.2 1.1.3 1.8.3.5 0 1.1 0 1.7-.1.6-.1 1.2-.2 1.8-.5.1 0 .2-.2.2-.3V107c0-.1-.1-.2-.1-.2h-1.3zm-54.6.2c-.4 0-.8.1-1.1.2-.3.1-.6.3-.9.5-.2.3-.5.6-.6.9-.1.3-.2.7-.2 1.1 0 .4.1.9.4 1.4.2.5.5 1 .9 1.4-.4.3-.7.6-1.1.8-.4.2-.7.6-.9.9-.3.4-.5.7-.6 1.1-.1.4-.2.8-.2 1.2 0 .9.3 1.6.8 2.1.6.5 1.3.8 2.3.8.8 0 1.5-.2 2.1-.6.6-.4 1.1-.8 1.5-1.4l1.4 1.6c.1.1.1.2.2.2h.3v-.1h1.1s.1 0 .1-.1v-.2c-.4-.4-.7-.7-1-1.1-.3-.3-.5-.6-.8-.9-.3-.3-.5-.5-.6-.7.2-.3.3-.6.5-.9.2-.3.4-.5.6-.8.2-.2.5-.4.8-.6.3-.2.7-.3 1.1-.4.1-.1.2-.1.2-.1v-.2l-.1-.8c0-.1-.1-.2-.2-.2-.2.1-.3.1-.4.1-.2 0-.3.1-.4.1-.7.2-1.2.6-1.7 1.1-.5.5-.9 1.1-1.2 1.7-.3-.4-.6-.8-.9-1.1-.3-.3-.6-.7-1-1.2l.9-.6c.3-.2.6-.4.8-.7.2-.3.4-.6.5-.9.1-.3.2-.7.2-1.1 0-.4-.1-.7-.2-1-.2-.3-.4-.6-.6-.8-.3-.2-.6-.4-.9-.5-.3-.1-.7-.2-1.1-.2zm-66.1.2c-.3 0-.6.1-.7.2-.1.2-.2.4-.2.7V119c0 .1 0 .2.1.2 0 .1.1.1.2.1h1c.2 0 .3-.1.3-.1.1 0 .1-.1.1-.2v-4.9h2.4c.3 0 .6.1.8.1.3.1.5.2.7.3.2.1.4.3.5.5.2.2.3.5.4.8l.9 3.3c0 .1 0 .2.1.2h1.3c.1 0 .2-.001.2-.1v-.2l-1-3.6c-.1-.5-.3-.8-.5-1.1-.2-.3-.5-.6-1-.7v-.1c.6-.2 1.1-.6 1.4-1.1.3-.5.5-1.1.5-1.8 0-.5-.1-1-.3-1.4-.1-.4-.4-.8-.7-1.1-.3-.3-.7-.5-1.1-.7-.5-.1-1-.2-1.5-.2H59zm81.9.2c-.6 0-1 0-1.4.2-.4.1-.7.3-.9.6-.2.2-.4.5-.5.9-.1.3-.1.7-.1 1.1v8.7c0 .2 0 .3.1.3.1.1.2.1.3.1h.9c.2 0 .2-.1.3-.1.1-.1.1-.1.1.1v-5.2h5.4c.1 0 .1 0 .2-.1s.1-.2.1-.3v-.7c0-.2-.1-.2-.1-.3s-.1-.1-.2-.1h-5.4v-2.4c0-.5.1-.8.3-1 .2-.2.5-.3 1-.3h4.6c.2 0 .3 0 .3-.1.1-.1.1-.2.1-.3v-.7c0-.2-.1-.2-.1-.3-.1-.1-.2-.1-.3-.1h-4.7zm-15.6 1c.2 0 .4 0 .6.1.2.1.3.2.4.3.1.1.1.2.2.4s.1.3.1.5-.1.5-.2.8c-.1.2-.2.4-.4.6-.1.2-.3.4-.5.5-.2.2-.4.3-.6.4-.2-.3-.5-.6-.7-1-.3-.4-.4-.8-.4-1.2s.1-.7.4-1c.3-.3.7-.4 1.1-.4zm-65.7.3h3c.5 0 .8.1 1.1.2.3.2.5.3.7.5.2.2.3.4.4.6.1.2.1.5.1.7 0 .3 0 .5-.2.8-.1.2-.2.4-.4.6-.2.1-.4.3-.7.4-.3.1-.7.2-1.1.2h-2.9v-4zm91.2 1.2c-.4 0-.9 0-1.5.1s-1.1.2-1.5.4c-.1 0-.2 0-.2.1v.2l.2.7c0 .1 0 .2.1.2h.2c.3-.1.7-.1 1.1-.2.5-.1.9-.1 1.3-.1s.7 0 1 .1c.2.1.5.2.6.4l.3.6c.1.2.1.4.1.7v.4h-2.1c-.6 0-1.2.1-1.7.3s-.9.4-1.2.7c-.3.3-.5.6-.6 1-.1.3-.2.7-.2 1.1 0 .4.1.8.2 1.1.1.3.3.6.6.9.3.2.6.4 1.1.6.5.1 1.1.2 1.8.2.5 0 1.1 0 1.7-.1.6-.1 1.2-.3 1.7-.5.2 0 .3-.2.3-.4v-5.5c0-1-.3-1.7-.8-2.2-.5-.5-1.4-.8-2.5-.8zm17.4 0c-.4 0-.9 0-1.5.1s-1.1.2-1.5.4c-.1 0-.2 0-.2.1v.2l.2.7c0 .1.001.2.1.2h.2c.3-.1.7-.1 1.1-.2.5-.1.9-.1 1.3-.1s.7 0 1 .1c.2.1.5.2.6.4l.3.6c.1.2.1.4.1.7v.4h-2.1c-.6 0-1.2.1-1.7.3s-.9.4-1.2.7c-.3.3-.5.6-.6 1-.1.3-.2.7-.2 1.1 0 .4.1.8.2 1.1.1.3.3.6.6.9.3.2.6.4 1.1.6.5.1 1.1.2 1.8.2.5 0 1.1 0 1.7-.1.6-.1 1.2-.3 1.7-.5.2 0 .3-.2.3-.4v-5.5c0-1-.3-1.7-.8-2.2-.5-.5-1.4-.8-2.5-.8zm-95.9.1c-.6 0-1.1.1-1.6.3s-.9.5-1.3.9c-.3.4-.6.9-.8 1.5-.2.6-.3 1.2-.3 2 0 1.6.3 2.7 1 3.5.6.8 1.6 1.2 2.9 1.2s2.3-.4 3-1.2c.7-.8 1-2 1-3.5 0-1.4-.3-2.6-.9-3.5-.7-.8-1.7-1.2-3-1.2zm9.6 0c-.6 0-1.1.1-1.6.3s-.9.5-1.3.9c-.3.4-.6.9-.8 1.5-.2.6-.3 1.2-.3 2 0 1.6.3 2.7 1 3.5.6.8 1.6 1.2 2.9 1.2 1.3 0 2.3-.4 3-1.2.7-.8 1-2 1-3.5 0-1.4-.4-2.6-.9-3.5-.7-.8-1.7-1.2-3-1.2zm17.3 0c-.2.1-.4.1-.6.1-.2.1-.4.1-.5.1-.4.1-.6.2-.8.4-.1.2-.2.5-.2.9v7.5c0 .1.1.2.1.2h1.3c.1 0 .1-.1.1-.2v-7.5c.4 0 .7-.1 1-.1h.6c.6 0 1 .1 1.4.2.4.2.7.3.9.6.2.3.3.6.4 1 .1.3.1.8.1 1.3v4.5c0 .1.1.2.1.2h1.3c.1 0 .1-.1 0-.3v-4.6c0-.8 0-1.5-.2-2-.1-.5-.4-1-.7-1.3-.3-.4-.8-.6-1.3-.8-.5-.1-1.2-.2-1.9-.2h-1.1zm60.7 0c-.6 0-1.2 0-1.7.3s-1 .6-1.3 1c-.3.4-.6.9-.8 1.5-.2.6-.3 1.3-.3 2 0 1.5.3 2.6 1 3.4.7.8 1.6 1.2 2.9 1.2.5 0 1 0 1.5-.1s1-.3 1.4-.5c.2-.1.2-.3.1-.4l-.3-.7-.1-.1c0-.1-.1-.1-.2 0-.2.1-.5.2-.9.3-.3.1-.7.2-1.1.2-.5 0-.9-.1-1.5-.2-.3-.2-.6-.4-.8-.7-.2-.3-.3-.6-.4-1-.1-.4-.1-.8-.1-1.3s0-.9.1-1.3.3-.8.5-1.1c.2-.4.5-.6.8-.8.4-.2.7-.3 1.2-.3.3 0 .7 0 1 .1l.9.3h.2s.1-.001.1-.1l.4-.7c.1-.2.1-.3-.1-.4-.4-.3-.8-.4-1.2-.5-.4-.1-.8-.1-1.3-.1zm-49.4.1c-.7 0-1.3.1-1.9.4-.5.2-1 .6-1.3 1-.4.4-.6.9-.8 1.5-.1.6-.2 1.2-.2 1.9 0 .6.1 1.2.2 1.8.1.5.4 1 .7 1.4.3.4.7.7 1.2.9.5.2 1 .3 1.7.3.3 0 .7-.001 1.1-.1l1.2-.3v.1c0 .5-.1.8-.2 1.1-.2.3-.3.5-.6.7-.2.2-.5.4-.9.5-.4.1-.8.2-1.3.3-.1 0-.2.1-.2.2l.1.9c0 .1.1.2.1.2h.2c.7-.1 1.4-.2 1.9-.4.6-.2 1-.4 1.4-.8.3-.3.6-.8.8-1.3.2-.5.3-1.1.3-1.9v-7.6c0-.1-.1-.2-.2-.3-.5-.2-1-.3-1.6-.4-.6-.1-1.2-.1-1.7-.1zm76.4 0c-.6 0-1.1.1-1.5.5-.4.2-.8.5-1.2.9-.3.4-.6.9-.8 1.5-.2.6-.3 1.2-.3 2s.1 1.5.3 2.1c.2.5.4 1 .8 1.4.4.3.8.6 1.3.8.5.2 1.1.3 1.7.3.5 0 .9 0 1.4-.1.4-.1.9-.2 1.3-.5.1 0 .2-.1.1-.3l-.4-.7c-.1-.2-.2-.2-.3-.1-.2.1-.5.2-.9.3s-.7.1-1.1.1c-.4 0-.8-.1-1.1-.2-.4-.1-.7-.3-.9-.5-.3-.2-.5-.5-.6-.9-.1-.4-.2-.9-.2-1.4h4.9c.2 0 .3-.1.5-.1.1 0 .3-.1.4-.2.1-.1.2-.2.3-.4.1-.2.1-.4.1-.7 0-.5-.1-1-.2-1.5-.2-.5-.4-.9-.7-1.2-.3-.4-.7-.6-1.2-.8-.5-.2-1.1-.3-1.7-.3zm8.5 0c-1 0-1.8.2-2.3.7-.5.5-.8 1.1-.8 1.8 0 .4.1.7.2.9.1.3.3.5.5.7l.9.6c.3.2.7.3 1.2.5.7.2 1.2.5 1.6.7.3.2.5.6.5 1s-.2.7-.5.9c-.3.2-.8.3-1.3.3-.4 0-.8 0-1.3-.1s-.9-.3-1.4-.5h-.2c0 .1-.1.1-.1.2l-.3.7v.2s0 .1.1.1c.5.2 1 .4 1.6.5.6.1 1.2.2 1.7.2s.9-.1 1.3-.2.7-.3 1-.5c.3-.2.5-.5.7-.8.1-.4.2-.8.2-1.2s-.1-.7-.4-1c-.1-.2-.3-.5-.6-.7-.3-.2-.6-.4-.9-.5-.3-.1-.6-.3-1-.4-.3-.2-.6-.3-.9-.4-.2-.2-.4-.3-.6-.4-.2-.1-.3-.3-.4-.4-.1-.1-.1-.3-.1-.5 0-.3.1-.6.4-.8.3-.2.7-.3 1.2-.3.4 0 .8.1 1.1.1.3 0 .7.1 1.2.3h.1s.1-.001.1-.1l.3-.8c.1-.1 0-.2-.1-.3-.4-.2-.9-.3-1.3-.4-.5-.1-.9-.1-1.4-.1zm-123.2 1.2c.5 0 .9.1 1.2.3.4.2.6.5.8.8.2.3.3.7.4 1.1.1.4.1.9.1 1.3s0 .8-.2 1.2c-.1.4-.2.8-.4 1.1-.2.4-.5.6-.8.8-.3.2-.7.3-1.2.3s-.9-.1-1.2-.3c-.4-.2-.6-.4-.8-.7-.2-.3-.3-.7-.4-1.1-.1-.4-.1-.9-.1-1.4 0-.5.1-.9.2-1.3s.3-.8.5-1.1c.2-.3.5-.5.8-.7.3-.2.7-.3 1.1-.3zm9.6 0c.5 0 .9.1 1.2.3.4.2.6.5.8.8.2.3.3.7.4 1.1.1.4.1.9.1 1.3s-.1.8-.2 1.2c-.1.4-.2.7-.4 1.1-.2.4-.5.6-.8.8-.3.2-.7.3-1.2.3s-.9-.1-1.2-.3c-.4-.2-.6-.4-.8-.7-.2-.3-.3-.7-.4-1.1-.1-.4-.1-.9-.1-1.4 0-.5.1-.9.2-1.3s.3-.8.5-1.1c.2-.3.5-.5.8-.7.3-.2.7-.3 1.1-.3zm105.1 0c.4 0 .8.1 1.1.2.3.2.5.4.7.6.2.3.3.6.4.9.09.272.097.553.097.9H184.5c0-.3.1-.7.2-1 .1-.3.3-.6.5-.8.2-.3.4-.5.7-.6.3-.1.6-.2 1-.2zm-76.2.1c.2 0 .5.1.9.1.3 0 .7.1 1 .2h.1v6.1c-.4.2-.8.3-1.2.3-.4.1-.7.1-.9.1-.7 0-1.4-.2-1.8-.8-.5-.5-.7-1.4-.7-2.5 0-.7.1-1.2.2-1.6.1-.5.3-.8.5-1.1.2-.3.5-.5.8-.6.3-.1.7-.2 1.1-.2zm66.9 0c.2 0 .5.1.8.1.3 0 .7.1 1.1.2v6.2c-.3.1-.6.1-1 .2s-.7.1-1 .1c-.4 0-.8-.1-1.1-.2-.3-.2-.6-.3-.8-.6-.2-.3-.4-.6-.5-1-.1-.4-.2-.9-.2-1.5s.1-1.2.1-1.6c.2-.5.4-.8.6-1.1.3-.3.6-.5.9-.6.4-.1.7-.2 1.1-.2zm-53.1 2.1 2.2 3c-.3.5-.7 1-1.2 1.3-.5.3-.9.5-1.4.5-.5 0-1-.1-1.3-.4-.3-.3-.5-.8-.5-1.4 0-.3.1-.6.2-.9.1-.3.3-.6.5-.8.2-.3.4-.5.7-.7.3-.2.5-.4.8-.6zm25.4 1.3h2.8v3c-.2.1-.4.2-.6.2s-.4.1-.6.1c-.2.1-.3.1-.5.1h-.4c-.4 0-.6 0-.9-.1-.3-.1-.5-.2-.7-.3-.2-.1-.4-.3-.5-.5-.1-.2-.2-.5-.2-.8 0-.4 0-.8.2-1 .2-.2.4-.4.6-.5.3-.1.5-.2.8-.2zm17.4 0h2.8v3c-.2.1-.4.2-.6.2s-.4.1-.6.1c-.2.1-.3.1-.5.1h-.4c-.4 0-.6 0-.9-.1-.3-.1-.5-.2-.7-.3-.2-.1-.4-.3-.5-.5-.1-.2-.2-.5-.2-.8 0-.4 0-.8.2-1 .2-.2.4-.4.6-.5.3-.1.5-.2.8-.2z" fill="#fff" style="stroke-dashoffset:341.298px"/></svg>