<svg xmlns="http://www.w3.org/2000/svg" width="136" height="42" stroke="#000" stroke-width=".4" stroke-linejoin="round"><path d="M84.441 18.034a.2.2 0 0 0-.004.048l.2-.006-.2.006V18.095l.001.04.004.154.018.589.063 2.123.196 6.637.344 11.715c.008.297.124.594.388.786.241.175.614.387 1.072.449.465.063 1.003-.032 1.558-.447.259-.194.383-.494.395-.793l.167-4.986.128-4.009.18-4.779.09-1.657.082-.838c.746-2.946 1.976-4.729 3.184-5.891.897-.863 1.773-1.381 2.466-1.79l.672-.413h.001c.424-.287.658-.648.73-1.029s-.021-.754-.21-1.066c-.372-.615-1.162-1.04-1.946-.735h-.001l-7.009 2.771-.009.004c-.55.251-1.095.574-1.552 1.065s-.818 1.146-1.009 2.042zm-37.66.316v-.004l.061-1.609c.027-.715-.288-1.496-1.025-1.764-.471-.171-1.004-.258-1.65-.258-.597 0-1.101.079-1.546.228-.762.257-1.084 1.06-1.047 1.789l.079 1.572v.01l.842 20.82c.02.434.189.88.601 1.129.486.295 1.303.585 2.199.064.446-.259.626-.739.646-1.203l.243-6.189.598-14.586zm.135-10.64c0-1.452-1.202-2.612-2.682-2.612s-2.682 1.16-2.682 2.613 1.202 2.613 2.682 2.613 2.682-1.16 2.682-2.613zM2.89 1.319a.361.361 0 0 0-.1-.143.86.86 0 0 0-.128-.097 1.79 1.79 0 0 0-.354-.166c-.27-.095-.625-.158-.96-.082-.465.106-.745.53-.874.779a.82.82 0 0 0-.051.614c.879 3.251 3.695 11.725 6.451 19.709l3.843 10.909c1.098 3.034 1.938 5.253 2.267 5.926 1.55 3.218 6.323 3.21 7.938.003.329-.656 1.157-2.864 2.239-5.886L26.966 22l6.623-19.688a.862.862 0 0 0-.058-.718c-.14-.243-.416-.624-.83-.727-.264-.076-.587-.08-.963.058-.475.175-.751.614-.898 1.034-3.362 9.576-8.584 22.252-12.49 30.963-.245.476-.49.821-.728 1.046s-.457.318-.657.32-.42-.088-.662-.312-.492-.571-.746-1.055C11.603 24.09 6.207 10.895 2.89 1.319zM115.26 24.83l9.521.521 7.64 15.318a.29.29 0 0 0 .048.084.56.56 0 0 0 .048.05c.032.029.072.06.117.089a1.9 1.9 0 0 0 .343.176c.268.106.632.185.991.089.264-.065.469-.242.615-.415a2.27 2.27 0 0 0 .309-.488.527.527 0 0 0 .028-.369c-.835-3.139-3.658-11.632-6.432-19.667l-3.874-11c-1.108-3.065-1.957-5.312-2.287-5.996-1.55-3.218-6.323-3.211-7.938-.003-.337.663-1.168 2.869-2.251 5.883l-3.804 10.859-6.632 19.703c-.084.265-.077.557.091.812.157.238.436.569.849.681a1.84 1.84 0 0 0 1.279-.205 1.03 1.03 0 0 0 .476-.586c3.325-9.609 8.65-22.461 12.597-31.265.245-.476.49-.821.728-1.046s.457-.318.657-.32.42.088.662.312.492.571.745 1.054l3.401 7.813.915 2.149c.218.523.338.829.368.93l.001.005.031.096c.072.222.133.412.176.578.049.192.066.326.054.422-.01.082-.04.13-.102.168-.075.048-.211.089-.451.105h-.002l-9.189.685-.005.001c-.754.077-1.226.738-1.241 1.384a1.27 1.27 0 0 0 .359.926c.256.262.641.433 1.157.468h.002zM72.747 11.468c.535-.212 1.019-.207 1.418-.043s.69.474.862.842c.34.729.214 1.719-.58 2.288l-.117-.162a13.06 13.06 0 0 1-.835.534c-1.875 1.14-5.035 3.062-6.409 9.213l5.661-12.672zm0 0-5.337 2.113c-.038-1.452-.012-5.917.002-7.978.005-.71-.316-1.473-1.026-1.771-.416-.175-.881-.267-1.513-.267-.617 0-1.073.074-1.478.219-.754.269-1.1 1.065-1.092 1.8l.056 4.429.066 5.383a1.94 1.94 0 0 0-1.206 1.802c0 .323.074.618.226.879l.048.093.05.098c.254.494.918 2.03 1.085 5.198l.539 15.658c.022.512.221 1.078.738 1.343.433.221 1.063.383 1.758.056.582-.275.795-.921.82-1.481l.388-8.273.237-4.346.101-1.495c.031-.39.056-.645.075-.745L72.75 11.47z"/></svg>