<svg xmlns="http://www.w3.org/2000/svg" xml:space="preserve" width="791" height="55" style="shape-rendering:geometricPrecision;text-rendering:geometricPrecision;image-rendering:optimizeQuality;fill-rule:evenodd;clip-rule:evenodd" viewBox="0 0 674.95 46.76"><path d="M55.65 42.19c.82.61 1.13 1.18.95 1.71-.19.53-.78.79-1.8.79h-4.26c-1.02 0-1.89-.28-2.62-.85L18.57 21.55 7.73 27.09v15.47c0 1.42-.71 2.13-2.13 2.13H3.47c-1.43 0-2.14-.71-2.14-2.13V4.2c0-1.42.71-2.14 2.14-2.14H5.6c1.42 0 2.13.72 2.13 2.14v16.56L42.99 2.67c.77-.4 1.66-.61 2.68-.61h5.66c1.06 0 1.65.3 1.8.89.14.59-.26 1.12-1.19 1.61L24.35 18.63l31.3 23.56zm71.8-.06c.53.69.66 1.29.4 1.8-.27.51-.85.76-1.74.76h-2.92c-1.06 0-1.91-.44-2.56-1.34l-5.85-7.98H73.5l-5.85 7.98c-.65.9-1.5 1.34-2.56 1.34h-2.92c-.89 0-1.47-.25-1.74-.76-.26-.51-.13-1.11.4-1.8L89.45 3.28c.65-.89 1.54-1.34 2.68-1.34h4.02c1.14 0 2.03.45 2.68 1.34l28.62 38.85zM77.64 29.71h33L94.14 7.18l-16.5 22.53zm114.3 12.36c.77.65 1.07 1.25.88 1.8-.18.55-.78.82-1.79.82h-3.35c-1.1 0-1.97-.3-2.62-.91L170.5 31.05h-30.38v11.51c0 1.42-.71 2.13-2.13 2.13h-2.14c-1.42 0-2.13-.71-2.13-2.13V4.2c0-1.42.71-2.14 2.13-2.14h39.59c3.08 0 5.76.42 8.04 1.25 2.27.84 4.01 1.97 5.23 3.41 1.22 1.45 2.1 2.98 2.65 4.6.55 1.62.82 3.37.82 5.24 0 1.7-.22 3.31-.67 4.81-.44 1.5-1.16 2.93-2.16 4.29-.99 1.36-2.39 2.5-4.2 3.41-1.81.92-3.95 1.51-6.43 1.8l13.22 11.2zM140.12 8.03v17.54h35.32c3.12 0 5.63-.74 7.52-2.22 1.89-1.48 2.83-3.75 2.83-6.79 0-5.69-3.45-8.53-10.35-8.53h-35.32zm124.71 34.1c.53.69.66 1.29.4 1.8-.27.51-.84.76-1.74.76h-2.92c-1.06 0-1.91-.44-2.56-1.34l-5.84-7.98h-41.29l-5.85 7.98c-.65.9-1.5 1.34-2.56 1.34h-2.92c-.89 0-1.47-.25-1.73-.76-.27-.51-.14-1.11.39-1.8l28.62-38.85c.65-.89 1.55-1.34 2.68-1.34h4.02c1.14 0 2.03.45 2.68 1.34l28.62 38.85zm-49.81-12.42h33.01L231.52 7.18l-16.5 22.53zm83.25-28.38c11 0 19.17 1.71 24.51 5.12 5.33 3.41 8 9.05 8 16.93 0 7.75-2.69 13.36-8.06 16.84-5.38 3.47-13.53 5.2-24.45 5.2h-.37c-10.96 0-19.13-1.73-24.51-5.2-5.38-3.48-8.07-9.09-8.07-16.84 0-7.88 2.68-13.52 8.04-16.93 5.36-3.41 13.54-5.12 24.54-5.12h.37zm0 38.19c9.37 0 16.05-1.31 20.03-3.93 3.98-2.62 5.97-6.69 5.97-12.21 0-5.6-1.97-9.69-5.91-12.27-3.94-2.58-10.64-3.87-20.09-3.87h-.37c-9.46 0-16.17 1.29-20.13 3.87-3.96 2.58-5.93 6.67-5.93 12.27 0 5.52 1.99 9.59 5.96 12.21 3.98 2.62 10.68 3.93 20.1 3.93h.37zm93.23 2.67c.81.61 1.12 1.18.94 1.71-.18.53-.78.79-1.79.79h-4.27c-1.01 0-1.89-.28-2.62-.85l-29.35-22.29-10.84 5.54v15.47c0 1.42-.71 2.13-2.13 2.13h-2.13c-1.42 0-2.13-.71-2.13-2.13V4.2c0-1.42.71-2.14 2.13-2.14h2.13c1.42 0 2.13.72 2.13 2.14v16.56l35.26-18.09c.77-.4 1.67-.61 2.68-.61h5.66c1.06 0 1.66.3 1.8.89.14.59-.25 1.12-1.19 1.61L360.2 18.63l31.3 23.56zm60.1-34.16h-46.28v12.79h42.69c1.42 0 2.13.71 2.13 2.13v1.58c0 1.43-.71 2.14-2.13 2.14h-42.69v12.05h46.28c1.42 0 2.13.71 2.13 2.13v1.71c0 1.42-.71 2.13-2.13 2.13h-50.54c-1.42 0-2.13-.71-2.13-2.13V4.2c0-1.42.71-2.14 2.13-2.14h50.54c1.42 0 2.13.72 2.13 2.14v1.7c0 1.42-.71 2.13-2.13 2.13zm78.56 13.7c5.56 1.75 8.34 5.32 8.34 10.72 0 8.16-5.82 12.24-17.47 12.24h-39.89c-1.42 0-2.13-.71-2.13-2.13V4.2c0-1.42.71-2.14 2.13-2.14h37.63c2.97 0 5.53.35 7.71 1.04 2.17.69 3.82 1.63 4.96 2.83 1.13 1.2 1.96 2.45 2.47 3.75.5 1.3.76 2.7.76 4.2 0 3.57-1.51 6.19-4.51 7.85zM518.71 7.91H485.4v12.36h33.31c6.5 0 9.75-2.09 9.75-6.27 0-2.15-.79-3.7-2.35-4.66-1.56-.95-4.03-1.43-7.4-1.43zm1.89 30.94c4.1 0 7.04-.48 8.83-1.43 1.79-.96 2.68-2.63 2.68-5.03 0-2.35-.9-4.03-2.71-5.02-1.81-1-4.74-1.5-8.8-1.5h-35.2v12.98h35.2zm56.33-37.52c11 0 19.17 1.71 24.51 5.12s8.01 9.05 8.01 16.93c0 7.75-2.69 13.36-8.07 16.84-5.38 3.47-13.53 5.2-24.45 5.2h-.37c-10.96 0-19.13-1.73-24.51-5.2-5.38-3.48-8.07-9.09-8.07-16.84 0-7.88 2.68-13.52 8.04-16.93 5.36-3.41 13.54-5.12 24.54-5.12h.37zm0 38.19c9.38 0 16.05-1.31 20.03-3.93 3.98-2.62 5.97-6.69 5.97-12.21 0-5.6-1.97-9.69-5.91-12.27-3.93-2.58-10.63-3.87-20.09-3.87h-.37c-9.46 0-16.17 1.29-20.12 3.87-3.96 2.58-5.94 6.67-5.94 12.27 0 5.52 1.99 9.59 5.97 12.21 3.98 2.62 10.67 3.93 20.09 3.93h.37zm95.79 2.55c.77.61 1.04 1.2.82 1.77-.22.57-.82.85-1.8.85h-4.26c-.93 0-1.82-.32-2.68-.97l-22.16-16.87-22.23 16.87c-.85.65-1.75.97-2.68.97h-4.26c-.98 0-1.58-.28-1.8-.85-.22-.57.05-1.16.82-1.77l25.09-19-24.24-18.39c-.81-.61-1.08-1.19-.82-1.76.27-.57.89-.86 1.86-.86h4.14c.93 0 1.83.33 2.68.98l21.44 16.2 21.37-16.2c.85-.65 1.75-.98 2.68-.98h4.14c.98 0 1.59.29 1.86.86.26.57-.01 1.15-.82 1.76l-24.24 18.39 25.09 19z" style="stroke:#fff;stroke-width:2.67;stroke-miterlimit:22.9256;fill:#fff;fill-rule:nonzero"/></svg>