<svg xmlns="http://www.w3.org/2000/svg" xmlns:xlink="http://www.w3.org/1999/xlink" width="142" height="34"><defs><path id="a" d="M218.46 131.3a6 6 0 1 1 11.08-4.6 6 6 0 0 1-11.08 4.6z"/><path id="b" d="M211.5 144.76a5.75 5.75 0 0 0-5.7-5.77 5.75 5.75 0 0 0-5.72 5.77 5.72 5.72 0 0 0 11.43 0zm6.5 11.97h-6.43v-1.2c-1.72.91-3.68 1.44-5.75 1.44-6.7 0-12.15-5.5-12.15-12.24 0-6.75 5.46-12.25 12.15-12.25 6.7 0 12.15 5.5 12.15 12.25zm-26.31-12V157h-6.43v-12.27a5.75 5.75 0 0 0-5.72-5.76 5.75 5.75 0 0 0-5.72 5.76V157h-6.43v-12.27c0-6.75 5.45-12.25 12.15-12.25s12.15 5.5 12.15 12.25zm-53.1-.05v12.27h-6.44v-12.27a5.75 5.75 0 0 0-5.71-5.77c-3.1 0-5.64 2.51-5.72 5.63v12.43h-6.43V124h6.43v9.92a12.13 12.13 0 0 1 17.87 10.76zm19.81.08a5.75 5.75 0 0 0-5.7-5.77 5.75 5.75 0 0 0-5.72 5.77 5.75 5.75 0 0 0 5.71 5.77 5.75 5.75 0 0 0 5.71-5.77zm6.46-.03v12h-6.43v-1.2a12.3 12.3 0 0 1-5.74 1.44c-6.7 0-12.14-5.5-12.14-12.24 0-6.75 5.45-12.25 12.14-12.25 6.7 0 12.15 5.5 12.17 12.25zm-59 .03a5.75 5.75 0 0 0-5.71-5.77 5.75 5.75 0 0 0-5.72 5.77 5.72 5.72 0 0 0 11.44 0zm6.44-.03c0 6.75-5.45 12.24-12.15 12.24S88 151.47 88 144.73c0-6.75 5.45-12.25 12.15-12.25s12.15 5.5 12.15 12.25z"/></defs><use fill="#f8f8f8" xlink:href="#a" transform="translate(-88 -123)"/><use fill="#f8f8f8" xlink:href="#b" transform="translate(-88 -123)"/></svg>