<svg xmlns="http://www.w3.org/2000/svg" width="117" height="40"><path fill="#d14270" d="M23.788 16.28a7.168 7.168 0 0 0-1.664-1.292 12.87 12.87 0 0 0-2.16-.99 15.683 15.683 0 0 0-5.134-.878c-1.629 0-3.122.232-4.478.7-1.359.468-2.526 1.114-3.503 1.942a8.574 8.574 0 0 0-2.266 2.929c-.53 1.126-.795 2.347-.795 3.667 0 1.078.164 1.996.496 2.75a5.75 5.75 0 0 0 1.361 1.94c.579.538 1.262 1 2.054 1.382.79.384 1.635.717 2.533 1.006 1.132.36 1.904.706 2.318 1.043.413.337.619.718.619 1.15 0 .527-.247.93-.743 1.203-.495.275-1.156.415-1.983.415-.379 0-.792-.054-1.238-.161a8.617 8.617 0 0 1-1.327-.432 7.373 7.373 0 0 1-1.255-.665 4.684 4.684 0 0 1-1.027-.9L0 36.337a10.12 10.12 0 0 0 2.09 1.546c.8.456 1.657.84 2.567 1.15.906.31 1.857.551 2.849.718.992.167 1.983.25 2.972.25 1.25 0 2.535-.167 3.853-.503a11.804 11.804 0 0 0 3.615-1.582 8.792 8.792 0 0 0 2.696-2.803c.705-1.15 1.057-2.539 1.057-4.168 0-.96-.159-1.82-.476-2.589a6.414 6.414 0 0 0-1.358-2.05c-.587-.598-1.306-1.126-2.151-1.582-.845-.455-1.81-.86-2.89-1.22-.872-.29-1.529-.564-1.975-.826-.446-.262-.669-.635-.669-1.114 0-.6.267-1.043.795-1.329.531-.289 1.127-.432 1.787-.432.851 0 1.593.149 2.23.45.637.3 1.156.688 1.558 1.168zM36.014 39.933c-2.007 0-3.783-.283-5.329-.846-1.546-.563-2.843-1.358-3.894-2.39a10.172 10.172 0 0 1-2.388-3.666c-.543-1.412-.813-2.97-.813-4.672 0-2.109.367-4.087 1.097-5.93.734-1.848 1.76-3.454 3.081-4.818 1.324-1.367 2.923-2.446 4.798-3.235 1.875-.79 3.958-1.186 6.247-1.186 2.03 0 3.817.283 5.364.846 1.546.563 2.843 1.359 3.893 2.39a10.235 10.235 0 0 1 2.389 3.667c.543 1.412.816 2.97.816 4.67 0 2.11-.361 4.088-1.08 5.932-.722 1.847-1.749 3.453-3.081 4.817-1.335 1.368-2.94 2.446-4.815 3.236-1.875.792-3.97 1.185-6.285 1.185zm6.725-14.556c0-.646-.103-1.25-.302-1.814a4.248 4.248 0 0 0-.886-1.475c-.39-.42-.875-.75-1.453-.989-.58-.24-1.235-.36-1.966-.36-.918 0-1.752.197-2.494.593a6.062 6.062 0 0 0-1.893 1.564 7.186 7.186 0 0 0-1.203 2.228 7.897 7.897 0 0 0-.425 2.553c0 .647.103 1.251.302 1.815.203.563.496 1.054.886 1.474.39.42.875.75 1.453.99.578.24 1.247.36 2 .36.922 0 1.75-.191 2.48-.575.73-.385 1.356-.9 1.875-1.546a7.154 7.154 0 0 0 1.203-2.229c.285-.84.426-1.7.423-2.589zM69.593 32.167l-1.238 7.117H53.663c-.041.003-.08.006-.12.006-.916 0-1.532-.61-1.573-1.45l4.102-24h8.248l-3.186 18.33h8.46zM108.502 39.277l-.566-3.882h-8.143l-2.089 3.882H88.57l15.399-25.447h8.638l4.39 25.447zm-1.983-16.784-3.577 6.542h4.32z"/><g><path fill="#2d395f" d="M77.474 36.217C76.23 38.4 75.625 38.4 75.37 38.4c-.255 0-1.01-.143-1.267-1.918L70.96 13.96h8.782l1.083 15.962z"/></g><g><path fill="#2d395f" d="m101.795 11.326-.91-1.248-15.37 27.035c-.909 1.338-1.584 2.22-3.06 2.22l-7.385-.003c1.183 0 1.558-.691 2.406-2.217L94.19 6.208l-1.537-.175-.273-1.657L102.094 0l1.145 10.215z"/></g></svg>