<?xml version="1.0" encoding="iso-8859-1"?>
<!-- Generator: Adobe Illustrator 19.0.0, SVG Export Plug-In . SVG Version: 6.00 Build 0)  -->
<svg version="1.1" id="Capa_1" xmlns="http://www.w3.org/2000/svg" xmlns:xlink="http://www.w3.org/1999/xlink" x="0px" y="0px"
	 viewBox="0 0 448 448" style="enable-background:new 0 0 448 448;" xml:space="preserve">
<g>
	<g>
		<path d="M202.667,74.667c-11.755,0-21.333,9.579-21.333,21.333c0,11.755,9.579,21.333,21.333,21.333S224,107.755,224,96
			C224,84.245,214.421,74.667,202.667,74.667z"/>
	</g>
</g>
<g>
	<g>
		<path d="M224,0c-4.053,0-8.043,0.213-11.989,0.597C94.101,6.891,0,104.533,0,224c0,123.52,100.48,224,224,224
			c4.053,0,8.043-0.213,11.989-0.597C353.92,441.109,448,343.488,448,224C448,100.48,347.52,0,224,0z M224,352
			c-11.755,0-21.333-9.557-21.333-21.333s9.579-21.333,21.333-21.333c11.755,0,21.333,9.557,21.333,21.333S235.755,352,224,352z
			 M314.709,404.971c16.619-20.245,26.624-46.123,26.624-74.304c0-64.704-52.651-117.333-117.333-117.333c-52.928,0-96-43.072-96-96
			c0-52.928,43.072-96,96-96c111.744,0,202.667,90.923,202.667,202.667C426.667,303.125,380.992,371.605,314.709,404.971z"/>
	</g>
</g>
<g>
	<g>
		<polygon points="224,330.645 224,330.667 234.667,330.667 		"/>
	</g>
</g>
<g>
</g>
<g>
</g>
<g>
</g>
<g>
</g>
<g>
</g>
<g>
</g>
<g>
</g>
<g>
</g>
<g>
</g>
<g>
</g>
<g>
</g>
<g>
</g>
<g>
</g>
<g>
</g>
<g>
</g>
</svg>
