<svg id="bold" enable-background="new 0 0 24 24" height="512" viewBox="0 0 24 24" width="512" xmlns="http://www.w3.org/2000/svg"><path d="m12 13.76c.93-.98 1.5-2.3 1.5-3.76v4.66c-.4-.11-.82-.16-1.25-.16h-.25z"/><path d="m24 2v15c0 1.1-.9 2-2 2h-4.56c-.07-.53-.23-1.04-.45-1.5h4.26c.69 0 1.25-.56 1.25-1.25v-13.5c0-.69-.56-1.25-1.25-1.25-.14 0-.25.11-.25.25 0 .96-.79 1.75-1.75 1.75h-2.5c-.96 0-1.75-.79-1.75-1.75 0-.14-.11-.25-.25-.25-.69 0-1.25.56-1.25 1.25v7.25c0-1.46-.57-2.78-1.5-3.77v-4.23c0-1.1.9-2 2-2h8c1.1 0 2 .9 2 2z"/><path d="m18 9c-.827 0-1.5-.673-1.5-1.5s.673-1.5 1.5-1.5 1.5.673 1.5 1.5-.673 1.5-1.5 1.5z"/><path d="m20.25 13h-4.5c-.414 0-.75-.336-.75-.75 0-1.241 1.009-2.25 2.25-2.25h1.5c1.241 0 2.25 1.009 2.25 2.25 0 .414-.336.75-.75.75z"/><path d="m8 14c-2.206 0-4-1.794-4-4s1.794-4 4-4 4 1.794 4 4-1.794 4-4 4z"/><path d="m15.25 24h-14.5c-.414 0-.75-.336-.75-.75v-3.5c0-2.068 1.682-3.75 3.75-3.75h8.5c2.068 0 3.75 1.682 3.75 3.75v3.5c0 .414-.336.75-.75.75z"/></svg>